<?xml version="1.0" encoding="iso-8859-1"?>
<svg version="1.1" id="Layer_1" xmlns="http://www.w3.org/2000/svg" xmlns:xlink="http://www.w3.org/1999/xlink" x="0px" y="0px"
	 viewBox="0 0 502 502" style="enable-background:new 0 0 502 502;" xml:space="preserve">
		<g>
			<path d="M492,87.984h-33.036v-3.389c0-2.753-1.135-5.384-3.137-7.272c-2.004-1.891-4.707-2.866-7.442-2.711L251,86.054
				L53.615,74.612c-2.75-0.155-5.441,0.82-7.442,2.711c-2.002,1.889-3.137,4.52-3.137,7.272v3.389H10c-5.522,0-10,4.478-10,10
				v319.42c0,5.522,4.478,10,10,10h482c5.522,0,10-4.478,10-10V97.984C502,92.462,497.522,87.984,492,87.984z M261,105.509
				l177.964-10.316v274.521L261,380.03V105.509z M63.036,95.192L241,105.509V380.03L63.036,369.713V95.192z M482,407.404H20v-299.42
				h23.036V379.15c0,5.298,4.132,9.677,9.421,9.983l197.964,11.477c0.193,0.011,0.384,0.016,0.575,0.016c0.001,0,0.002,0,0.003,0
				H251h0.001c0.001,0,0.002,0,0.003,0c0.192,0,0.384-0.006,0.575-0.016l197.964-11.477c5.289-0.307,9.421-4.686,9.421-9.983
				V107.984H482V407.404z"/>
		</g>
</svg>
