<svg version="1.1" viewBox="0 0 48 48" xml:space="preserve" xmlns="http://www.w3.org/2000/svg">
	<path d="m47.987 21.938c-6e-3 -0.091-0.023-0.178-0.053-0.264-0.011-0.032-0.019-0.063-0.033-0.094-0.048-0.104-0.109-0.202-0.193-0.285l-1e-3 -1e-3 -5.707-5.708v-5.586c0-0.022-0.011-0.041-0.013-0.063-6e-3 -0.088-0.023-0.173-0.051-0.257-0.011-0.032-0.019-0.063-0.034-0.094-0.049-0.106-0.11-0.207-0.196-0.293l-9-9c-0.086-0.086-0.187-0.148-0.294-0.196-0.03-0.014-0.06-0.022-0.091-0.032-0.085-0.03-0.172-0.047-0.263-0.052-0.019-3e-3 -0.037-0.013-0.058-0.013h-25c-0.552 0-1 0.448-1 1v14.586l-5.709 5.709c-0.084 0.084-0.144 0.182-0.192 0.285-0.014 0.031-0.022 0.062-0.033 0.094-0.03 0.086-0.048 0.173-0.053 0.264-2e-3 0.022-0.013 0.04-0.013 0.062v19c0 0.552 0.448 1 1 1h5v5c0 0.552 0.448 1 1 1h34c0.552 0 1-0.448 1-1v-5h5c0.552 0 1-0.448 1-1v-19c0-0.022-0.011-0.04-0.013-0.062zm-3.401-0.938h-2.586v-2.586l2.586 2.586zm-6-12h-5.586v-5.586l5.586 5.586zm-30.586-7h23v8c0 0.552 0.448 1 1 1h8v10h-32v-19zm-2 16.414v2.586h-2.586l2.586-2.586zm34 27.586h-32v-4h32v4zm6-6h-44v-17h44v17z"/>
	<text x="5.7313433" y="36.298508" font-family="Arial" font-size="12px" style="font-variant-caps:normal;font-variant-east-asian:normal;font-variant-ligatures:normal;font-variant-numeric:normal" xml:space="preserve"><tspan/></text><text x="5.3432827" y="36.417912" fill="#000000" font-family="Arial" font-size="12px" style="font-variant-caps:normal;font-variant-east-asian:normal;font-variant-ligatures:normal;font-variant-numeric:normal" xml:space="preserve"><tspan x="5.3432827" y="36.417912" font-family="Arial" font-size="13.333px" font-weight="bold" style="font-variant-caps:normal;font-variant-east-asian:normal;font-variant-ligatures:normal;font-variant-numeric:normal">JSON</tspan></text>
</svg>
