<?xml version="1.0" encoding="iso-8859-1"?>
<svg version="1.1" xmlns="http://www.w3.org/2000/svg" xmlns:xlink="http://www.w3.org/1999/xlink" x="0px" y="0px"
	 viewBox="0 0 512 512" style="enable-background:new 0 0 512 512;" xml:space="preserve">
<g>
	<g>
		<path d="M159.929,409.282l-1.464-12.531c-0.486-4.169-4.259-7.151-8.432-6.667c-4.169,0.487-7.155,4.262-6.667,8.432l1.464,12.531
			c0.452,3.87,3.737,6.719,7.54,6.719c0.295,0,0.593-0.017,0.892-0.052C157.431,417.226,160.416,413.451,159.929,409.282z"/>
	</g>
</g>
<g>
	<g>
		<path d="M386.203,210.886h-45.286v-12.779c2.606-0.844,5.101-2.127,7.364-3.863c2.542-1.951,8.028-7.155,10.034-16.793
			c8.234,5.396,15.792,5.198,18.97,4.779c11.011-1.449,19.713-10.151,21.162-21.162c0.419-3.176,0.617-10.736-4.78-18.97
			c9.638-2.007,14.844-7.492,16.794-10.034c6.76-8.811,6.76-21.118,0-29.928c-1.95-2.542-7.153-8.026-16.789-10.034
			c3.023-4.568,4.24-8.785,4.701-11.86c0.623-4.151-2.238-8.021-6.389-8.644c-4.15-0.626-8.022,2.238-8.644,6.389
			c-1.033,6.883-8.372,13.626-20.138,18.507c-0.009,0.004-0.021,0.008-0.03,0.012c-3.878,1.606-5.72,6.053-4.114,9.93
			c1.606,3.878,6.055,5.721,9.931,4.113c16.094-6.667,25.746-3.938,29.412,0.839c2.579,3.362,2.579,8.058,0,11.42
			c-3.666,4.777-13.317,7.505-29.412,0.839c-3.877-1.605-8.324,0.235-9.931,4.113c-0.393,0.951-0.581,1.936-0.581,2.904
			c0,2.982,1.766,5.814,4.694,7.027c16.095,6.667,20.99,15.421,20.204,21.39c-0.552,4.202-3.873,7.522-8.075,8.075
			c-5.963,0.781-14.724-4.108-21.39-20.204c-1.606-3.878-6.053-5.72-9.931-4.113c-2.928,1.213-4.694,4.044-4.694,7.027
			c0,0.969,0.186,1.954,0.581,2.904c6.667,16.094,3.938,25.746-0.839,29.412c-3.362,2.58-8.059,2.58-11.42,0
			c-4.777-3.666-7.506-13.317-0.839-29.412c1.606-3.878-0.235-8.324-4.113-9.93c-3.879-1.606-8.324,0.235-9.931,4.113
			c-5.384,13-13.05,20.592-20.506,20.28c-3.998-0.162-7.369-2.705-8.585-6.479c-1.466-4.551,0.526-9.674,5.486-14.341
			c3.083,0.929,5.723,1.161,7.574,1.161c11.728-0.001,21.895-8.318,24.174-19.777c1.221-6.138,0.148-13.458-4.541-20.542
			c14.416-2.876,21.91-14.011,21.91-25.027c0-9.076-5.102-18.221-14.957-22.772c0.987-4.443,3.414-7.604,6.9-8.846
			c3.536-1.262,7.371-0.326,10.003,2.441c4.987,5.245,4.872,15.845-0.307,28.358c-0.002,0.005-0.004,0.01-0.006,0.015
			c-1.606,3.878,0.235,8.324,4.113,9.93c0.951,0.394,1.937,0.581,2.905,0.581c2.982,0,5.813-1.767,7.025-4.694
			c0.002-0.005,0.004-0.01,0.006-0.014c4.624-11.156,11.033-18.436,17.586-19.975c4.086-0.96,6.622-5.051,5.661-9.137
			c-0.96-4.087-5.051-6.619-9.137-5.661c-2.561,0.601-5.98,1.83-9.729,4.329c-1.487-7.284-4.883-11.873-7.103-14.207
			c-6.729-7.076-16.982-9.542-26.122-6.284c-1.394,0.498-2.713,1.119-3.967,1.832c-0.067-0.494,0.597-23.036-24.415-21.239
			c-3.333,0.239-9.247,0.747-15.704,5.007c-0.971-4.815-2.75-8.343-4.323-10.696C271.979,4.185,264.253,0,255.999,0
			c-8.254,0-15.98,4.185-20.665,11.197c-1.572,2.353-3.351,5.881-4.323,10.696c-6.458-4.26-12.362-5.015-15.704-5.007
			c-23.491,0.061-24.345,20.746-24.412,21.24c-1.047-0.596-2.139-1.131-3.288-1.579c-9.185-3.584-19.602-1.325-26.54,5.758
			c-2.302,2.35-5.841,7.003-7.37,14.449c-8.239-5.406-15.803-5.205-18.982-4.787c-11.011,1.449-19.713,10.151-21.162,21.162
			c-0.419,3.176-0.617,10.736,4.779,18.97c-9.637,2.007-14.844,7.492-16.793,10.034c-6.761,8.811-6.761,21.118,0,29.928
			c1.951,2.542,7.153,8.028,16.793,10.034c-5.397,8.234-5.198,15.794-4.779,18.97c1.45,11.011,10.152,19.713,21.162,21.162
			c3.175,0.418,10.735,0.617,18.97-4.779c2.006,9.64,7.492,14.843,10.034,16.793c2.263,1.736,4.758,3.019,7.364,3.863v12.779
			h-45.287c-14.25,0-25.842,11.593-25.842,25.842v49.159c0,14.25,11.593,25.842,25.842,25.842h7.425l7.345,62.839
			c0.452,3.87,3.736,6.719,7.54,6.719c0.295,0,0.592-0.017,0.892-0.052c4.169-0.487,7.155-4.262,6.667-8.432l-7.14-61.075h214.944
			l-20.69,176.79c-0.546,4.72-4.541,8.28-9.293,8.28H178.483c-4.751,0-8.747-3.56-9.294-8.289l-6.465-55.305
			c-0.486-4.169-4.264-7.151-8.432-6.667c-4.169,0.487-7.155,4.262-6.667,8.432l6.464,55.297
			C155.523,502.657,166.01,512,178.482,512h155.003c12.473,0,22.96-9.344,24.392-21.725l20.897-178.547h7.429
			c14.25,0,25.842-11.593,25.842-25.842v-49.157C412.046,222.48,400.452,210.886,386.203,210.886z M291.602,182.423
			c3.541,0.149,9.861-0.428,16.722-4.942c2.011,9.621,7.488,14.814,10.028,16.763c2.263,1.736,4.758,3.019,7.364,3.863v12.779
			h-62.115v-47.643c1.597-0.524,3.133-1.217,4.593-2.055c0.2,1.418,0.52,2.83,0.971,4.23
			C272.308,175.174,281.324,182.008,291.602,182.423z M190.219,77.56c2.183-3.782,6.784-5.866,12.956-5.866
			c4.993,0,10.764,1.342,17.152,3.988c3.877,1.606,8.324-0.235,9.931-4.113c0.393-0.951,0.581-1.936,0.581-2.904
			c0-2.982-1.766-5.814-4.694-7.027c-16.675-6.906-21.316-15.899-20.1-22.01c0.883-4.439,4.693-7.54,9.265-7.54
			c7.323,0,14.837,7.584,20.098,20.288c1.606,3.878,6.053,5.72,9.931,4.114c2.928-1.213,4.694-4.044,4.694-7.027
			c0-0.969-0.186-1.954-0.581-2.904c-4.733-11.425-5.271-21.236-1.477-26.915c1.886-2.822,4.812-4.442,8.025-4.442
			c3.214,0,6.139,1.619,8.025,4.442c3.795,5.679,3.256,15.489-1.477,26.915c-0.394,0.951-0.581,1.936-0.581,2.904
			c0,2.982,1.766,5.814,4.694,7.027c3.877,1.605,8.324-0.235,9.931-4.114c5.262-12.703,12.775-20.288,20.098-20.288
			c4.574,0,8.384,3.101,9.268,7.54c1.216,6.111-3.427,15.103-20.103,22.01c-2.928,1.213-4.694,4.044-4.694,7.027
			c0,0.969,0.188,1.954,0.581,2.904c1.606,3.878,6.053,5.721,9.931,4.113c6.389-2.646,12.159-3.988,17.152-3.988
			c9.815,0,14.208,5.292,14.208,10.536c0,5.245-4.393,10.539-14.208,10.539c-4.993,0-10.764-1.342-17.152-3.988
			c-3.877-1.605-8.324,0.235-9.931,4.113c-0.393,0.951-0.581,1.936-0.581,2.904c0,2.982,1.766,5.814,4.694,7.027
			c16.674,6.906,21.316,15.898,20.101,22.01c-0.884,4.44-4.693,7.54-9.266,7.541c-7.323,0-14.836-7.583-20.098-20.288
			c-1.606-3.878-6.054-5.719-9.931-4.113c-2.928,1.213-4.694,4.044-4.694,7.027c0,0.969,0.186,1.954,0.581,2.904
			c4.733,11.425,5.271,21.235,1.477,26.914c-1.886,2.823-4.812,4.442-8.025,4.442s-6.139-1.618-8.025-4.442
			c-3.795-5.679-3.256-15.489,1.477-26.914c0.394-0.951,0.581-1.936,0.581-2.904c0-2.982-1.766-5.814-4.694-7.027
			c-3.877-1.606-8.324,0.235-9.931,4.113c-5.261,12.702-12.775,20.287-20.099,20.288c-0.001,0-0.001,0-0.002,0
			c-4.571,0-8.38-3.099-9.264-7.538c-1.216-6.112,3.425-15.105,20.103-22.013c2.928-1.213,4.694-4.044,4.694-7.027
			c0-0.969-0.187-1.954-0.581-2.904c-1.606-3.878-6.053-5.72-9.93-4.113c-6.386,2.645-12.157,3.987-17.153,3.988
			c-0.002,0-0.004,0-0.006,0c-6.167,0-10.766-2.081-12.948-5.86C188.554,84.026,188.554,80.443,190.219,77.56z M248.399,163.244
			v47.643h-62.116v-12.779c2.606-0.844,5.101-2.127,7.364-3.863c2.539-1.948,8.016-7.144,10.028-16.763
			c6.866,4.517,13.197,5.087,16.731,4.941c10.281-0.42,19.297-7.259,22.435-17.019c0.448-1.394,0.766-2.802,0.965-4.215
			C245.265,162.026,246.801,162.72,248.399,163.244z M172.133,152.772c0.394-0.951,0.581-1.936,0.581-2.904
			c0-2.982-1.766-5.814-4.694-7.027c-3.877-1.606-8.324,0.235-9.93,4.113c-6.666,16.094-15.43,20.983-21.39,20.204
			c-4.202-0.553-7.523-3.873-8.076-8.075c-0.785-5.97,4.109-14.724,20.204-21.39c2.928-1.213,4.694-4.044,4.694-7.027
			c0-0.969-0.187-1.954-0.581-2.904c-1.606-3.878-6.052-5.719-9.93-4.114c-16.095,6.667-25.747,3.938-29.412-0.839
			c-2.579-3.362-2.579-8.058,0-11.42c3.666-4.777,13.315-7.506,29.412-0.839c3.876,1.604,8.324-0.235,9.93-4.113
			c0.393-0.951,0.581-1.936,0.581-2.904c0-2.982-1.766-5.814-4.694-7.027c-16.094-6.666-20.989-15.421-20.204-21.39
			c0.553-4.202,3.874-7.522,8.076-8.075c5.967-0.782,14.724,4.108,21.39,20.204c1.606,3.878,6.054,5.72,9.931,4.114
			c3.878-1.606,5.72-6.053,4.113-9.931c-5.231-12.628-5.308-23.275-0.208-28.482c2.668-2.724,6.654-3.601,10.155-2.236
			c3.372,1.315,5.686,4.429,6.642,8.764c-4.973,2.294-8.994,5.854-11.67,10.488c-4.371,7.573-4.371,16.98,0.002,24.551
			c3.833,6.637,10.42,11.078,18.627,12.734c-4.698,7.089-5.773,14.417-4.55,20.559c2.28,11.458,12.446,19.772,24.173,19.772
			c0.001,0,0.003,0,0.005,0c1.85-0.001,4.49-0.233,7.572-1.162c4.958,4.665,6.951,9.785,5.488,14.336
			c-1.214,3.776-4.583,6.321-8.583,6.484c-7.45,0.313-15.108-7.262-20.494-20.242c-0.005-0.013-0.01-0.024-0.015-0.038
			c-1.605-3.878-6.053-5.72-9.931-4.113c-3.878,1.606-5.72,6.053-4.113,9.93c0.004,0.01,0.008,0.02,0.013,0.03
			c6.651,16.077,3.922,25.718-0.852,29.381c-3.362,2.58-8.058,2.58-11.42,0C168.195,178.517,165.466,168.867,172.133,152.772z
			 M396.844,285.886L396.844,285.886c0,5.868-4.773,10.641-10.641,10.641H125.796c-5.868,0-10.641-4.773-10.641-10.641v-49.157
			c0-5.868,4.773-10.641,10.641-10.641h260.408c5.868,0,10.641,4.773,10.641,10.641V285.886z"/>
	</g>
</g>
<g>
	<g>
		<path d="M316.804,263.489H213.435c-4.198,0-7.601,3.403-7.601,7.601c0,4.198,3.403,7.601,7.601,7.601h103.369
			c4.198,0,7.601-3.403,7.601-7.601C324.405,266.892,321.002,263.489,316.804,263.489z"/>
	</g>
</g>
<g>
	<g>
		<path d="M368.151,263.489h-23.646c-4.198,0-7.601,3.403-7.601,7.601c0,4.198,3.403,7.601,7.601,7.601h23.646
			c4.198,0,7.601-3.403,7.601-7.601C375.752,266.892,372.349,263.489,368.151,263.489z"/>
	</g>
</g>
<g>
</g>
<g>
</g>
<g>
</g>
<g>
</g>
<g>
</g>
<g>
</g>
<g>
</g>
<g>
</g>
<g>
</g>
<g>
</g>
<g>
</g>
<g>
</g>
<g>
</g>
<g>
</g>
<g>
</g>
</svg>
